# xmcd CD database file
#
# Track frame offsets:
#	182
#	24707
#	59525
#	85677
#	118872
#	150540
#	187080
#	210737
#	238642
#	274667
#	291422
#	318270
#
# Disc length: 4661 seconds
#
# Revision: 0
# Processed by: cddbd v1.4PL0 Copyright (c) Steve Scherf et al.
# Submitted via: CDex 1.51
#
DISCID=af12330c
DTITLE=Warren Vaché/Allan Vaché - Mrs. Vaché's Boys
DYEAR=1999
DGENRE=Jazz
TTITLE0=Just Friends
TTITLE1=Tangerine
TTITLE2=London By Night
TTITLE3=I'll Remember April
TTITLE4=All Blues
TTITLE5=Just Squeeze Me
TTITLE6=The Eel's Nephew
TTITLE7=Falando De Orlando
TTITLE8=Cottontail
TTITLE9=Danny Boy
TTITLE10=If Dreams Come True
TTITLE11=What Am I Here For
EXTD=YEAR: 1999
EXTT0=
EXTT1=
EXTT2=
EXTT3=
EXTT4=
EXTT5=
EXTT6=
EXTT7=
EXTT8=
EXTT9=
EXTT10=
EXTT11=
PLAYORDER=
